<?xml version="1.0" encoding="UTF-8" standalone="no"?>
<!DOCTYPE svg PUBLIC "-//W3C//DTD SVG 1.1//EN" "http://www.w3.org/Graphics/SVG/1.1/DTD/svg11.dtd">
<svg width="100%" height="100%" viewBox="0 0 4167 4167" version="1.1" xmlns="http://www.w3.org/2000/svg" xmlns:xlink="http://www.w3.org/1999/xlink" xml:space="preserve" xmlns:serif="http://www.serif.com/" style="fill-rule:evenodd;clip-rule:evenodd;stroke-linejoin:round;stroke-miterlimit:2;">
    <g id="Página-1" serif:id="Página 1" transform="matrix(4.166667,0,0,4.166667,0,0)">
        <rect x="0" y="0" width="1000" height="1000" style="fill:none;"/>
        <clipPath id="_clip1">
            <rect x="0" y="0" width="1000" height="1000"/>
        </clipPath>
        <g clip-path="url(#_clip1)">
            <g transform="matrix(1.477334,0,0,1.477334,-238.666874,-238.666874)">
                <rect x="0" y="0" width="1000" height="1000" style="fill:rgb(20,58,97);"/>
            </g>
            <g id="Capa-1" serif:id="Capa 1">
                <g transform="matrix(0,-1.422865,-1.422865,0,232.674905,637.808438)">
                    <path d="M-45.752,-45.752C-71.02,-45.752 -91.504,-25.268 -91.504,0C-91.504,25.268 -71.02,45.752 -45.752,45.752C-20.484,45.752 0,25.268 0,0C0,-25.268 -20.484,-45.752 -45.752,-45.752" style="fill:white;fill-rule:nonzero;"/>
                </g>
                <g transform="matrix(1.422865,0,0,1.422865,499.999467,637.805023)">
                    <path d="M0,91.51C-25.26,91.51 -45.75,71.02 -45.75,45.75C-45.75,20.49 -25.26,0 0,0C25.27,0 45.76,20.49 45.76,45.75C45.76,71.02 25.27,91.51 0,91.51" style="fill:rgb(255,0,0);fill-rule:nonzero;"/>
                </g>
                <g transform="matrix(0,-1.422865,-1.422865,0,767.327302,637.805023)">
                    <path d="M-45.75,-45.76C-71.02,-45.76 -91.51,-25.27 -91.51,0C-91.51,25.26 -71.02,45.75 -45.75,45.75C-20.49,45.75 0,25.26 0,0C0,-25.27 -20.49,-45.76 -45.75,-45.76" style="fill:rgb(255,220,68);fill-rule:nonzero;"/>
                </g>
                <g transform="matrix(1.422865,0,0,1.422865,-211.432495,50.068814)">
                    <g opacity="0.5">
                        <g transform="matrix(1,0,0,1,690.111,350.6892)">
                            <path d="M0,163.072C-29.046,164.221 -53.332,142.823 -56.791,114.956C-57.071,112.716 -57.211,110.436 -57.211,108.126C-57.211,106.026 -57.091,103.946 -56.861,101.906C-56.841,101.696 -56.811,101.496 -56.791,101.296C-55.271,89.046 -49.721,78.046 -41.501,69.656C-31.531,59.466 -17.621,53.146 -2.231,53.146C29.009,53.146 54.165,79.197 52.698,110.75C51.382,139.049 28.307,161.952 0,163.072M16.703,20.662C-11.022,14.97 -37.157,22.138 -56.791,37.296L-56.791,-15.851C-56.791,-26.136 -65.129,-34.474 -75.414,-34.474L-84.413,-34.474C-88.173,-34.474 -91.221,-31.426 -91.221,-27.666L-91.221,57.845C-91.221,69.127 -95.181,80.05 -102.411,88.71L-102.741,89.106L-146.001,140.966L-146.041,141.006C-147.831,143.426 -149.831,145.686 -152.001,147.756C-161.881,157.276 -175.311,163.116 -190.111,163.116C-220.471,163.116 -245.091,138.496 -245.091,108.126C-245.091,106.161 -247.548,105.271 -248.807,106.78L-274.531,137.616L-279.521,143.596L-279.521,197.546L-245.091,197.546L-245.091,178.646C-229.931,190.486 -210.841,197.546 -190.111,197.546C-164.691,197.546 -141.751,186.936 -125.471,169.896C-123.211,167.536 -121.071,165.036 -119.081,162.436L-91.221,129.036L-91.221,197.546L-56.791,197.546L-56.791,178.966C-41.701,190.616 -22.771,197.546 -2.231,197.546C53.423,197.546 97.2,146.685 85.177,88.914C78.74,57.986 47.647,27.015 16.703,20.662" style="fill:white;fill-rule:nonzero;"/>
                        </g>
                    </g>
                </g>
                <g transform="matrix(1.422865,0,0,1.422865,-211.432495,50.068814)">
                    <g opacity="0.3">
                        <g transform="matrix(1,0,0,1,558.6096,409.255)">
                            <path d="M0,50.964C-1.236,52.446 -3.622,51.553 -3.62,49.623L-3.62,49.56C-3.62,19.2 -28.24,-5.42 -58.61,-5.42C-74,-5.42 -87.91,0.9 -97.88,11.09C-97.88,11.09 -101.27,14.86 -102.1,15.94L-113.59,29.71L-145.99,68.54L-145.99,68.55L-148.02,70.98L-175.46,103.87C-175.47,103.89 -175.49,103.91 -175.51,103.93C-177.49,106.51 -179.6,108.98 -181.85,111.33C-196.178,126.327 -215.664,136.343 -237.459,138.53C-292.021,144.004 -339.076,98.756 -335.731,44.023C-332.871,-2.778 -294.01,-39.85 -246.49,-39.85C-220.905,-39.85 -197.835,-29.099 -181.534,-11.873C-177.783,-7.909 -177.657,-1.738 -181.153,2.451L-183.218,4.925C-190.212,13.305 -202.804,14.454 -211.162,7.434C-221.317,-1.095 -234.602,-6.017 -249.053,-5.361C-277.22,-4.083 -300.096,18.764 -301.409,46.929C-302.88,78.496 -277.722,104.55 -246.49,104.55C-231.69,104.55 -218.26,98.7 -208.38,89.19C-205.03,85.97 -158.289,29.547 -158.289,29.547C-151.654,21.596 -148.02,11.568 -148.02,1.212L-148.02,-86.232C-148.02,-89.992 -144.972,-93.04 -141.212,-93.04L-132.213,-93.04C-121.928,-93.04 -113.59,-84.702 -113.59,-74.417L-113.59,-20.95C-98.43,-32.79 -79.34,-39.85 -58.61,-39.85C-19.57,-39.85 13.62,-14.84 25.8,20.04L0,50.964Z" style="fill:white;fill-rule:nonzero;"/>
                        </g>
                    </g>
                </g>
            </g>
        </g>
    </g>
</svg>
